<svg width="155" height="53" viewBox="0 0 155 53" fill="none" xmlns="http://www.w3.org/2000/svg">
<path fill-rule="evenodd" clip-rule="evenodd" d="M39.5632 3.62459L41.6862 5.55944C41.516 5.77443 41.2472 5.97149 40.9875 6.16856C39.4468 7.30618 30.507 14.4634 30.1935 14.5619C29.8889 14.3469 29.5396 13.908 29.2977 13.6392C29.0559 13.3705 29.0201 13.3078 28.8499 13.1555C28.0078 12.3673 27.7481 11.9463 27.121 11.3371C26.1088 10.3518 23.8873 7.86156 23.1349 7.29723C20.4386 5.26384 16.5689 3.5171 12.0901 4.35912C10.2765 4.70694 8.55565 5.43006 7.03797 6.48208C4.18048 8.4886 2.03064 11.4984 1.28716 15.0993C0.731781 17.8225 1.07217 19.0138 1.54693 21.4593C1.69025 21.7191 2.11126 23.0269 2.6308 24.0212C3.99237 26.6279 6.28553 28.4731 8.22038 30.5423L11.5168 33.8119C12.3767 34.6539 18.3604 40.4585 18.9964 41.2288L26.5298 48.6637C27.7749 49.8819 29.0201 51.0106 30.2383 52.4169C30.516 52.3005 30.3189 52.408 30.5429 52.2109L49.5241 35.0033C50.3034 34.215 51.9158 32.9161 52.9191 31.9129L57.4696 27.8192C59.4313 26.2427 59.7179 21.1458 57.174 18.3331C56.8424 17.9432 56.4799 17.5808 56.0901 17.2492C55.8751 17.07 54.9614 16.4878 54.8629 16.3713C53.2057 15.8339 52.8116 15.3322 50.7245 15.3591C47.7326 15.3949 45.8246 16.7476 43.8091 18.4764L38.3539 23.1344C38.2106 23.2508 38.1389 23.3404 37.9867 23.4658C37.8671 23.5507 37.7534 23.6435 37.6463 23.7435C37.3686 23.9943 37.2342 24.066 36.9834 24.3078C36.7326 24.5497 36.7774 24.4691 36.643 24.5945C35.9981 25.1498 30.6414 29.8347 30.1935 30.0586C29.7994 29.763 29.4052 29.3062 29.0469 28.9389C27.5689 27.4609 17.6797 17.4552 17.0437 16.9357C15.8792 15.9951 11.4989 16.4609 12.7977 20.3396C13.0306 21.0472 13.3352 21.1995 13.7562 21.6116L27.9989 35.7736C28.7065 36.4634 29.4052 37.3233 30.1935 37.9234C30.6414 37.6726 34.4126 34.3135 34.9858 33.8119L42.5461 27.1743C42.779 26.9682 43.0388 26.7353 43.2896 26.5293C44.5437 25.5171 45.6544 24.3884 46.9174 23.3583C48.0103 22.4625 49.3181 20.7964 51.029 20.7606C52.7399 20.7248 53.5819 22.1669 52.9997 23.8062C52.7695 24.4449 52.4026 25.0258 51.9248 25.5081C51.1992 26.2875 48.6552 28.5358 47.6699 29.3599L44.7766 31.877C44.6243 32.0114 44.5885 32.0831 44.4272 32.2174C44.2943 32.3125 44.1685 32.4173 44.051 32.5309C43.7644 32.8176 43.5942 32.8982 43.3523 33.149C43.2369 33.2643 43.1143 33.372 42.985 33.4715C42.8238 33.6059 42.779 33.6865 42.6267 33.8119C42.4745 33.9373 42.3759 33.991 42.2415 34.1164C42.1072 34.2419 42.0534 34.3135 41.928 34.43L38.9989 36.9739C38.8466 37.0904 38.7929 37.18 38.6406 37.3143L35.7562 39.8314C35.6039 39.9658 35.5502 40.0554 35.4069 40.1718C34.1886 41.193 33.051 42.3037 31.8148 43.298C31.3938 43.6384 30.7847 44.364 30.3458 44.5252C30.0233 44.1222 29.2888 43.4951 28.8678 43.0831L27.4166 41.605L25.9207 40.1629L24.5054 38.7296C23.529 37.7443 22.5526 36.8485 21.5583 35.8811C20.564 34.9137 19.6324 33.9462 18.6471 33.0057L15.7 30.0945C14.4639 28.9121 13.2008 27.7565 12.0184 26.5114C11.7318 26.2068 11.5795 26.0456 11.2929 25.7769C9.59986 24.1555 8.42641 23.2419 7.53064 20.8949C4.91501 14.0603 11.5258 8.14821 18.235 10.8892C19.1218 11.2476 19.507 11.4536 20.0534 12C21.3523 13.3078 29.4679 21.5489 30.2025 22.1311C31.2684 21.4324 32.9435 19.7573 34.0453 18.9063L42.5819 11.6238C42.9044 11.3461 43.2448 11.1042 43.5494 10.8176C43.8539 10.5309 44.2212 10.2622 44.5078 10.0024C44.7945 9.74267 45.1349 9.45603 45.4215 9.22313C45.959 9.68892 46.371 10.4145 46.8458 10.9878C47.0198 11.1749 47.1785 11.3756 47.3205 11.5879H49.9093L49.9541 1H39.5274L39.5632 3.62459Z" fill="white"/>
<path d="M39.5632 3.65145L41.6862 5.5863C41.516 5.80128 41.2472 5.99835 40.9875 6.19542C39.4468 7.33304 30.507 14.4902 30.1935 14.5887C29.8889 14.3738 29.5396 13.9348 29.2977 13.6661C29.0559 13.3974 29.0201 13.3347 28.8499 13.1824C28.0078 12.3941 27.7481 11.9731 27.121 11.364C26.1088 10.3786 23.8873 7.88842 23.1349 7.32409C20.4386 5.2907 16.5689 3.54396 12.0901 4.38598C10.2765 4.7338 8.55565 5.45692 7.03797 6.50894C4.18048 8.51545 2.03064 11.5252 1.28716 15.1262C0.731781 17.8493 1.07217 19.0407 1.54693 21.4861C1.69025 21.7459 2.11126 23.0537 2.6308 24.048C3.99237 26.6547 6.28553 28.5 8.22038 30.5692L11.5168 33.8387C12.3767 34.6808 18.3604 40.4853 18.9964 41.2557L26.5298 48.6905C27.7749 49.9088 29.0201 51.0374 30.2383 52.4438C30.516 52.3273 30.3189 52.4348 30.5429 52.2378L49.5241 35.0301C50.3034 34.2418 51.9158 32.943 52.9191 31.9397L57.4696 27.8461C59.4313 26.2695 59.7179 21.1726 57.174 18.3599C56.8424 17.9701 56.4799 17.6076 56.0901 17.276C55.8751 17.0969 54.9614 16.5146 54.8629 16.3982C53.2057 15.8607 52.8116 15.3591 50.7245 15.386C47.7326 15.4218 45.8246 16.7744 43.8091 18.5032L38.3539 23.1612C38.2106 23.2777 38.1389 23.3672 37.9867 23.4927C37.8672 23.5775 37.7534 23.6703 37.6463 23.7703C37.3686 24.0212 37.2342 24.0928 36.9834 24.3347C36.7326 24.5765 36.7774 24.4959 36.643 24.6213C35.9981 25.1767 30.6414 29.8615 30.1935 30.0855C29.7994 29.7899 29.4052 29.333 29.0469 28.9658C27.5689 27.4878 17.6797 17.4821 17.0437 16.9625C15.8792 16.022 11.4989 16.4878 12.7977 20.3664C13.0306 21.0741 13.3352 21.2264 13.7562 21.6384L25.7953 33.6058L27.9989 35.8005C28.7065 36.4902 29.4052 37.3501 30.1935 37.9503C30.6414 37.6995 34.4126 34.3404 34.9858 33.8387L42.5461 27.2011C42.779 26.9951 43.0388 26.7622 43.2896 26.5562C44.5437 25.544 45.6544 24.4153 46.9174 23.3852C48.0103 22.4894 49.3181 20.8233 51.029 20.7874C52.7399 20.7516 53.5819 22.1938 52.9997 23.833C52.7695 24.4718 52.4026 25.0526 51.9248 25.535C51.1992 26.3143 48.6552 28.5627 47.6699 29.3868L44.7766 31.9039C44.6243 32.0383 44.5885 32.1099 44.4272 32.2443C44.2943 32.3394 44.1685 32.4442 44.051 32.5578C43.7644 32.8444 43.5942 32.9251 43.3523 33.1759C43.2369 33.2912 43.1143 33.3989 42.985 33.4984C42.8238 33.6327 42.779 33.7133 42.6267 33.8387C42.4745 33.9641 42.3759 34.0179 42.2415 34.1433C42.1072 34.2687 42.0534 34.3404 41.928 34.4568L38.9989 37.0008C38.8466 37.1172 38.7929 37.2068 38.6406 37.3412L35.7562 39.8583C35.6039 39.9927 35.5502 40.0822 35.4069 40.1987C34.1886 41.2198 33.051 42.3306 31.8148 43.3249C31.3938 43.6653 30.7847 44.3909 30.3458 44.5521C30.0233 44.149 29.2888 43.522 28.8678 43.1099L27.4166 41.6319L25.9207 40.1897L24.5054 38.7565C23.529 37.7712 22.5526 36.8754 21.5583 35.908C20.564 34.9405 19.6324 33.9731 18.6471 33.0326L15.7 30.1213C14.4639 28.9389 13.2008 27.7834 12.0184 26.5383C11.7318 26.2337 11.5795 26.0725 11.2929 25.8037C9.59986 24.1824 8.42641 23.2687 7.53064 20.9218C4.91501 14.0871 11.5258 8.17506 18.235 10.9161C19.1218 11.2744 19.507 11.4804 20.0534 12.0269C21.3523 13.3347 29.4679 21.5757 30.2025 22.158C31.2684 21.4593 32.9435 19.7842 34.0453 18.9332L42.5819 11.6506C42.9044 11.3729 43.2448 11.1311 43.5494 10.8444C43.8539 10.5578 44.2212 10.2891 44.5078 10.0293C44.7945 9.76953 45.1349 9.48288 45.4215 9.24998C45.959 9.71578 46.371 10.4414 46.8458 11.0146C47.0198 11.2017 47.1785 11.4024 47.3205 11.6148H49.9093L49.9541 1.02686H39.5274L39.5632 3.65145Z" stroke="white" stroke-width="0.5" stroke-miterlimit="2.61313"/>
<path d="M136.942 29.1808V1.59121H154.221V5.30863H144.672V13.3347H153.711V17.0521H144.672V25.4633H154.723V29.1808H136.942ZM99.0648 29.1808V1.59121H106.294L112.492 16.4699L118.664 1.59121H126.224V29.1808H118.53V11.0415L111.095 29.1808H110.351L103.078 11.8477V29.1808H99.0648ZM90.6493 22.4446C89.4908 24.8512 87.8426 26.6875 85.7047 27.9536C83.5668 29.2196 81.0437 29.8526 78.1355 29.8526C76.2484 29.8526 74.5017 29.5839 72.8953 29.0464C71.3171 28.5312 69.8473 27.7296 68.5598 26.6816C66.8399 25.2961 65.55 23.6748 64.69 21.8176C63.8301 19.9604 63.4001 17.9091 63.4001 15.6637C63.4001 11.37 64.8005 7.8526 67.6013 5.11156C70.405 2.37052 73.9971 1 78.4042 1C80.9303 1 83.1339 1.51059 85.015 2.51384C86.8961 3.5171 88.5084 5.09364 89.8879 7.20765L86.3855 9.78745C85.5435 7.99593 84.5193 6.65228 83.313 5.75651C82.1135 4.8705 80.6568 4.40171 79.1656 4.42182C76.7948 4.42182 74.9525 5.38328 73.6387 7.30619C72.3399 9.21416 71.686 11.9283 71.686 15.4308C71.686 18.6615 72.4324 21.2682 73.9254 23.2508C75.4303 25.2304 77.392 26.2158 79.8285 26.2158C81.3602 26.2158 82.7666 25.7231 84.0296 24.7288C85.2926 23.7345 86.4034 22.2565 87.344 20.2948L90.6493 22.4446Z" fill="white"/>
<path d="M66.2619 36.1224C65.7752 36.1224 65.3984 36.3046 65.1314 36.669C64.8644 37.0305 64.7309 37.5357 64.7309 38.1843C64.7309 39.534 65.2412 40.2089 66.2619 40.2089C66.6902 40.2089 67.2089 40.1026 67.818 39.8901V40.9666C67.3174 41.1736 66.7584 41.2771 66.1409 41.2771C65.2538 41.2771 64.5752 41.0107 64.1052 40.478C63.6352 39.9425 63.4001 39.1752 63.4001 38.176C63.4001 37.5467 63.5156 36.996 63.7464 36.524C63.9772 36.0493 64.3082 35.6863 64.7393 35.4351C65.1731 35.1812 65.6807 35.0542 66.2619 35.0542C66.8543 35.0542 67.4495 35.1964 68.0474 35.4807L67.6302 36.524C67.4022 36.4164 67.1727 36.3225 66.9419 36.2425C66.7111 36.1625 66.4844 36.1224 66.2619 36.1224Z" fill="white"/>
<path d="M74.399 38.1595C74.399 39.1614 74.1487 39.9315 73.6481 40.4697C73.1475 41.008 72.43 41.2771 71.4955 41.2771C70.5611 41.2771 69.8436 41.008 69.343 40.4697C68.8424 39.9315 68.5921 39.1586 68.5921 38.1512C68.5921 37.1437 68.8424 36.375 69.343 35.845C69.8463 35.3123 70.5667 35.046 71.5039 35.046C72.4411 35.046 73.1573 35.3137 73.6523 35.8492C74.1501 36.3847 74.399 37.1547 74.399 38.1595ZM69.9479 38.1595C69.9479 38.8357 70.0772 39.345 70.3358 39.6872C70.5945 40.0295 70.981 40.2006 71.4955 40.2006C72.5273 40.2006 73.0432 39.5202 73.0432 38.1595C73.0432 36.7959 72.5301 36.1142 71.5039 36.1142C70.9894 36.1142 70.6014 36.2867 70.34 36.6317C70.0786 36.974 69.9479 37.4832 69.9479 38.1595Z" fill="white"/>
<path d="M80.8174 41.1943H79.1738L76.5206 36.6151H76.483C76.5359 37.4239 76.5623 38.0007 76.5623 38.3458V41.1943H75.4068V35.1412H77.0379L79.6869 39.6748H79.7161C79.6744 38.8881 79.6535 38.332 79.6535 38.0063V35.1412H80.8174V41.1943Z" fill="white"/>
<path d="M84.4533 41.1943H83.1601V36.2094H81.5039V35.1412H86.1095V36.2094H84.4533V41.1943Z" fill="white"/>
<path d="M86.7918 41.1943V35.1412H88.085V41.1943H86.7918Z" fill="white"/>
<path d="M94.7745 41.1943H93.1309L90.4777 36.6151H90.4402C90.493 37.4239 90.5194 38.0007 90.5194 38.3458V41.1943H89.3639V35.1412H90.995L93.644 39.6748H93.6732C93.6315 38.8881 93.6106 38.332 93.6106 38.0063V35.1412H94.7745V41.1943Z" fill="white"/>
<path d="M101.022 35.1412V39.0579C101.022 39.505 100.92 39.897 100.717 40.2337C100.517 40.5705 100.226 40.8286 99.8455 41.008C99.4645 41.1874 99.0139 41.2771 98.4939 41.2771C97.7096 41.2771 97.1005 41.0784 96.6667 40.6809C96.2328 40.2807 96.0159 39.7341 96.0159 39.0413V35.1412H97.3049V38.8467C97.3049 39.3132 97.3995 39.6555 97.5886 39.8735C97.7777 40.0916 98.0906 40.2006 98.5272 40.2006C98.95 40.2006 99.2559 40.0916 99.445 39.8735C99.6369 39.6527 99.7328 39.3077 99.7328 38.8385V35.1412H101.022Z" fill="white"/>
<path d="M102.259 41.1943V35.1412H103.552V41.1943H102.259Z" fill="white"/>
<path d="M110.242 41.1943H108.598L105.945 36.6151H105.907C105.96 37.4239 105.987 38.0007 105.987 38.3458V41.1943H104.831V35.1412H106.462L109.111 39.6748H109.14C109.099 38.8881 109.078 38.332 109.078 38.0063V35.1412H110.242V41.1943Z" fill="white"/>
<path d="M113.84 37.7951H116.26V40.9334C115.868 41.0604 115.498 41.1487 115.15 41.1984C114.805 41.2509 114.452 41.2771 114.09 41.2771C113.17 41.2771 112.466 41.0094 111.98 40.4739C111.496 39.9356 111.254 39.1642 111.254 38.1595C111.254 37.1823 111.535 36.4205 112.096 35.874C112.661 35.3275 113.442 35.0542 114.441 35.0542C115.067 35.0542 115.67 35.1784 116.251 35.4269L115.822 36.4537C115.377 36.2328 114.914 36.1224 114.433 36.1224C113.874 36.1224 113.426 36.3087 113.089 36.6814C112.753 37.054 112.584 37.555 112.584 38.1843C112.584 38.8412 112.719 39.3436 112.989 39.6914C113.262 40.0364 113.657 40.2089 114.174 40.2089C114.444 40.2089 114.718 40.1813 114.996 40.1261V38.8633H113.84V37.7951Z" fill="white"/>
<path d="M122.005 41.1943L120.536 36.4454H120.499C120.551 37.4114 120.578 38.0559 120.578 38.3789V41.1943H119.422V35.1412H121.183L122.626 39.77H122.651L124.182 35.1412H125.943V41.1943H124.737V38.3292C124.737 38.194 124.738 38.038 124.741 37.8614C124.747 37.6847 124.766 37.2155 124.8 36.4537H124.762L123.189 41.1943H122.005Z" fill="white"/>
<path d="M130.738 41.1943H127.226V35.1412H130.738V36.1928H128.519V37.5219H130.584V38.5735H128.519V40.1344H130.738V41.1943Z" fill="white"/>
<path d="M136.819 38.1098C136.819 39.1062 136.532 39.8694 135.959 40.3994C135.389 40.9293 134.565 41.1943 133.486 41.1943H131.759V35.1412H133.673C134.669 35.1412 135.442 35.402 135.993 35.9237C136.543 36.4454 136.819 37.1741 136.819 38.1098ZM135.475 38.1429C135.475 36.8428 134.897 36.1928 133.74 36.1928H133.052V40.1344H133.607C134.853 40.1344 135.475 39.4705 135.475 38.1429Z" fill="white"/>
<path d="M137.826 41.1943V35.1412H139.12V41.1943H137.826Z" fill="white"/>
<path d="M142.989 36.1224C142.503 36.1224 142.126 36.3046 141.859 36.669C141.592 37.0305 141.458 37.5357 141.458 38.1843C141.458 39.534 141.969 40.2089 142.989 40.2089C143.417 40.2089 143.936 40.1026 144.545 39.8901V40.9666C144.045 41.1736 143.486 41.2771 142.868 41.2771C141.981 41.2771 141.302 41.0107 140.832 40.478C140.362 39.9425 140.127 39.1752 140.127 38.176C140.127 37.5467 140.243 36.996 140.474 36.524C140.705 36.0493 141.035 35.6863 141.467 35.4351C141.9 35.1812 142.408 35.0542 142.989 35.0542C143.582 35.0542 144.177 35.1964 144.775 35.4807L144.358 36.524C144.129 36.4164 143.9 36.3225 143.669 36.2425C143.438 36.1625 143.212 36.1224 142.989 36.1224Z" fill="white"/>
<path d="M149.324 41.1943L148.882 39.7535H146.658L146.216 41.1943H144.823L146.975 35.1163H148.557L150.717 41.1943H149.324ZM148.573 38.677C148.164 37.3714 147.934 36.6331 147.881 36.4619C147.831 36.2908 147.795 36.1556 147.772 36.0562C147.681 36.4095 147.418 37.2831 146.984 38.677H148.573Z" fill="white"/>
<path d="M151.233 41.1943V35.1412H152.526V40.1344H155V41.1943H151.233Z" fill="white"/>
<path d="M67.1839 51.9861H63.6713V45.933H67.1839V46.9847H64.9645V48.3137H67.0295V49.3653H64.9645V50.9262H67.1839V51.9861Z" fill="white"/>
<path d="M73.2643 48.9016C73.2643 49.898 72.9779 50.6612 72.405 51.1912C71.8348 51.7212 71.0102 51.9861 69.9312 51.9861H68.2041V45.933H70.1189C71.1145 45.933 71.8877 46.1939 72.4383 46.7155C72.989 47.2372 73.2643 47.9659 73.2643 48.9016ZM71.9211 48.9347C71.9211 47.6347 71.3426 46.9847 70.1856 46.9847H69.4973V50.9262H70.0521C71.2981 50.9262 71.9211 50.2624 71.9211 48.9347Z" fill="white"/>
<path d="M79.2364 45.933V49.8497C79.2364 50.2969 79.1348 50.6888 78.9318 51.0256C78.7316 51.3623 78.441 51.6204 78.0599 51.7998C77.6789 51.9792 77.2284 52.0689 76.7083 52.0689C75.924 52.0689 75.315 51.8702 74.8811 51.4727C74.4473 51.0725 74.2303 50.526 74.2303 49.8332V45.933H75.5194V49.6386C75.5194 50.1051 75.6139 50.4473 75.8031 50.6654C75.9922 50.8834 76.3051 50.9925 76.7417 50.9925C77.1644 50.9925 77.4703 50.8834 77.6595 50.6654C77.8514 50.4446 77.9473 50.0995 77.9473 49.6303V45.933H79.2364Z" fill="white"/>
<path d="M83.0641 46.9143C82.5774 46.9143 82.2006 47.0965 81.9336 47.4608C81.6666 47.8224 81.5331 48.3275 81.5331 48.9761C81.5331 50.3259 82.0435 51.0007 83.0641 51.0007C83.4924 51.0007 84.0111 50.8945 84.6202 50.6819V51.7584C84.1196 51.9654 83.5606 52.0689 82.9431 52.0689C82.056 52.0689 81.3774 51.8026 80.9074 51.2699C80.4374 50.7344 80.2024 49.9671 80.2024 48.9679C80.2024 48.3385 80.3178 47.7879 80.5486 47.3159C80.7794 46.8411 81.1104 46.4782 81.5415 46.227C81.9753 45.9731 82.4829 45.8461 83.0641 45.8461C83.6565 45.8461 84.2517 45.9882 84.8496 46.2725L84.4324 47.3159C84.2044 47.2082 83.9749 47.1144 83.7441 47.0343C83.5133 46.9543 83.2866 46.9143 83.0641 46.9143Z" fill="white"/>
<path d="M89.3991 51.9861L88.9569 50.5453H86.7334L86.2912 51.9861H84.8978L87.0504 45.9082H88.6315L90.7924 51.9861H89.3991ZM88.6482 49.4688C88.2394 48.1633 88.0085 47.4249 87.9557 47.2538C87.9056 47.0827 87.8695 46.9474 87.8472 46.848C87.7554 47.2013 87.4926 48.0749 87.0588 49.4688H88.6482Z" fill="white"/>
<path d="M93.6607 51.9861H92.3675V47.0012H90.7113V45.933H95.3169V47.0012H93.6607V51.9861Z" fill="white"/>
<path d="M95.9992 51.9861V45.933H97.2924V51.9861H95.9992Z" fill="white"/>
<path d="M104.107 48.9513C104.107 49.9532 103.857 50.7233 103.356 51.2616C102.856 51.7998 102.138 52.0689 101.204 52.0689C100.269 52.0689 99.5516 51.7998 99.051 51.2616C98.5504 50.7233 98.3001 49.9505 98.3001 48.943C98.3001 47.9356 98.5504 47.1668 99.051 46.6369C99.5544 46.1042 100.275 45.8378 101.212 45.8378C102.149 45.8378 102.865 46.1055 103.36 46.641C103.858 47.1765 104.107 47.9466 104.107 48.9513ZM99.6559 48.9513C99.6559 49.6275 99.7852 50.1368 100.044 50.4791C100.303 50.8213 100.689 50.9925 101.204 50.9925C102.235 50.9925 102.751 50.3121 102.751 48.9513C102.751 47.5878 102.238 46.906 101.212 46.906C100.697 46.906 100.309 47.0785 100.048 47.4235C99.7866 47.7658 99.6559 48.2751 99.6559 48.9513Z" fill="white"/>
<path d="M110.525 51.9861H108.882L106.229 47.407H106.191C106.244 48.2157 106.27 48.7926 106.27 49.1376V51.9861H105.115V45.933H106.746L109.395 50.4666H109.424C109.382 49.68 109.362 49.1238 109.362 48.7981V45.933H110.525V51.9861Z" fill="white"/>
</svg>
