<svg width="191" height="65" viewBox="0 0 191 65" fill="none" xmlns="http://www.w3.org/2000/svg">
<path fill-rule="evenodd" clip-rule="evenodd" d="M48.5726 4.23777L51.1916 6.62465C50.9816 6.88986 50.6501 7.13297 50.3296 7.37608C48.429 8.77948 37.4007 17.6087 37.0139 17.7303C36.6382 17.4651 36.2072 16.9236 35.9088 16.5921C35.6105 16.2606 35.5663 16.1832 35.3563 15.9954C34.3176 15.023 33.9971 14.5036 33.2236 13.7522C31.9749 12.5366 29.2344 9.46461 28.3062 8.76843C24.98 6.25999 20.2062 4.10516 14.681 5.1439C12.4437 5.57298 10.3209 6.46504 8.4486 7.76284C4.92352 10.2381 2.27143 13.9511 1.35424 18.3933C0.669118 21.7527 1.08903 23.2224 1.6747 26.2391C1.85151 26.5596 2.37088 28.1729 3.0118 29.3995C4.69146 32.6152 7.52037 34.8916 9.90725 37.4442L13.9738 41.4776C15.0346 42.5164 22.4163 49.677 23.2009 50.6274L32.4943 59.7992C34.0303 61.302 35.5663 62.6944 37.0691 64.4293C37.4117 64.2857 37.1686 64.4183 37.4449 64.1751L60.8607 42.9473C61.822 41.9749 63.8111 40.3726 65.0488 39.1349L70.6624 34.0849C73.0824 32.14 73.436 25.8524 70.2977 22.3825C69.8887 21.9016 69.4415 21.4545 68.9606 21.0454C68.6954 20.8244 67.5683 20.1061 67.4467 19.9625C65.4024 19.2995 64.9162 18.6806 62.3414 18.7138C58.6506 18.758 56.2968 20.4266 53.8105 22.5593L47.0808 28.3055C46.904 28.4492 46.8156 28.5597 46.6277 28.7144C46.4803 28.8191 46.34 28.9336 46.2078 29.057C45.8653 29.3664 45.6995 29.4548 45.3901 29.7531C45.0807 30.0515 45.1359 29.9521 44.9702 30.1068C44.1745 30.7919 37.5664 36.5712 37.0139 36.8475C36.5277 36.4828 36.0415 35.9193 35.5994 35.4662C33.7761 33.6429 21.5765 21.2996 20.7919 20.6587C19.3553 19.4984 13.9517 20.073 15.554 24.8578C15.8413 25.7308 16.217 25.9187 16.7364 26.427L34.3065 43.8977C35.1795 44.7485 36.0415 45.8094 37.0139 46.5498C37.5664 46.2403 42.2186 42.0964 42.9258 41.4776L52.2524 33.2893C52.5397 33.0351 52.8602 32.7478 53.1696 32.4936C54.7166 31.245 56.0869 29.8526 57.645 28.5818C58.9931 27.4768 60.6065 25.4214 62.7171 25.3772C64.8278 25.333 65.8665 27.1121 65.1482 29.1343C64.8642 29.9223 64.4117 30.6388 63.8222 31.2339C62.9271 32.1953 59.7888 34.9689 58.5732 35.9856L55.0039 39.0907C54.8161 39.2565 54.7719 39.3449 54.573 39.5107C54.409 39.628 54.2538 39.7573 54.1089 39.8974C53.7552 40.251 53.5453 40.3505 53.2469 40.6599C53.1046 40.8021 52.9533 40.935 52.7939 41.0577C52.595 41.2235 52.5397 41.3229 52.3518 41.4776C52.164 41.6323 52.0424 41.6986 51.8767 41.8533C51.7109 42.008 51.6446 42.0964 51.4899 42.2401L47.8764 45.3784C47.6886 45.5221 47.6223 45.6326 47.4344 45.7983L43.8762 48.9035C43.6883 49.0693 43.622 49.1797 43.4452 49.3234C41.9424 50.5831 40.539 51.9534 39.014 53.18C38.4946 53.5999 37.7432 54.495 37.2017 54.6939C36.8039 54.1966 35.8978 53.4231 35.3784 52.9148L33.5883 51.0915L31.7428 49.3124L29.9969 47.5443C28.7924 46.3287 27.5879 45.2237 26.3613 44.0303C25.1347 42.8368 23.9855 41.6434 22.7699 40.4831L19.1343 36.8917C17.6094 35.4331 16.0513 34.0075 14.5926 32.4715C14.239 32.0958 14.0512 31.8969 13.6975 31.5654C11.609 29.5653 10.1614 28.4381 9.05637 25.5429C5.82966 17.1115 13.9848 9.81822 22.2616 13.1996C23.3556 13.6417 23.8308 13.8958 24.5048 14.5699C26.1071 16.1833 36.1188 26.3496 37.0249 27.0679C38.3399 26.206 40.4064 24.1395 41.7656 23.0898L52.2966 14.1058C52.6944 13.7632 53.1143 13.4649 53.49 13.1112C53.8658 12.7576 54.3188 12.4261 54.6724 12.1057C55.026 11.7852 55.446 11.4316 55.7996 11.1443C56.4626 11.7189 56.9709 12.614 57.5566 13.3212C57.7712 13.552 57.967 13.7996 58.1423 14.0616H61.3358L61.3911 1H48.5284L48.5726 4.23777Z" fill="#D83F12"/>
<path d="M48.5726 4.27097L51.1916 6.65785C50.9816 6.92306 50.6501 7.16617 50.3296 7.40928C48.429 8.81268 37.4006 17.642 37.0139 17.7635C36.6382 17.4983 36.2072 16.9568 35.9088 16.6253C35.6105 16.2938 35.5663 16.2165 35.3563 16.0286C34.3176 15.0562 33.9971 14.5368 33.2236 13.7854C31.9749 12.5698 29.2344 9.49781 28.3062 8.80163C24.98 6.29319 20.2062 4.13837 14.681 5.1771C12.4437 5.60619 10.3209 6.49824 8.4486 7.79604C4.92352 10.2713 2.27143 13.9843 1.35424 18.4265C0.669117 21.7859 1.08903 23.2556 1.6747 26.2723C1.85151 26.5928 2.37088 28.2061 3.0118 29.4327C4.69146 32.6484 7.52037 34.9248 9.90725 37.4774L13.9738 41.5108C15.0346 42.5496 22.4163 49.7102 23.2009 50.6606L32.4943 59.8324C34.0303 61.3352 35.5663 62.7276 37.0691 64.4625C37.4117 64.3189 37.1686 64.4515 37.4449 64.2083L60.8607 42.9805C61.822 42.0081 63.8111 40.4058 65.0488 39.1681L70.6624 34.1181C73.0824 32.1732 73.436 25.8856 70.2977 22.4157C69.8887 21.9348 69.4415 21.4877 68.9606 21.0786C68.6954 20.8576 67.5683 20.1393 67.4467 19.9957C65.4024 19.3327 64.9162 18.7138 62.3414 18.747C58.6506 18.7912 56.2968 20.4598 53.8105 22.5925L47.0808 28.3387C46.904 28.4824 46.8156 28.5929 46.6277 28.7476C46.4803 28.8523 46.34 28.9668 46.2078 29.0902C45.8653 29.3996 45.6995 29.488 45.3901 29.7863C45.0807 30.0847 45.1359 29.9853 44.9702 30.14C44.1745 30.8251 37.5664 36.6044 37.0139 36.8807C36.5277 36.516 36.0415 35.9525 35.5994 35.4994C33.7761 33.6761 21.5765 21.3328 20.7919 20.6919C19.3553 19.5316 13.9517 20.1062 15.554 24.891C15.8413 25.764 16.217 25.9519 16.7364 26.4602L31.5881 41.2235L34.3065 43.9309C35.1795 44.7817 36.0415 45.8426 37.0139 46.583C37.5664 46.2735 42.2186 42.1296 42.9259 41.5108L52.2524 33.3225C52.5397 33.0683 52.8602 32.781 53.1696 32.5268C54.7166 31.2782 56.0869 29.8858 57.645 28.615C58.9931 27.51 60.6065 25.4546 62.7171 25.4104C64.8278 25.3662 65.8665 27.1453 65.1482 29.1675C64.8642 29.9555 64.4117 30.672 63.8222 31.2671C62.9271 32.2285 59.7888 35.0021 58.5732 36.0188L55.0039 39.1239C54.8161 39.2897 54.7719 39.3781 54.573 39.5439C54.409 39.6612 54.2538 39.7905 54.1089 39.9306C53.7552 40.2842 53.5453 40.3837 53.2469 40.6931C53.1046 40.8353 52.9533 40.9682 52.7939 41.0909C52.595 41.2567 52.5397 41.3561 52.3518 41.5108C52.164 41.6655 52.0424 41.7318 51.8767 41.8865C51.7109 42.0412 51.6446 42.1296 51.4899 42.2733L47.8764 45.4116C47.6886 45.5553 47.6223 45.6658 47.4344 45.8315L43.8762 48.9367C43.6883 49.1025 43.622 49.2129 43.4452 49.3566C41.9424 50.6164 40.539 51.9866 39.014 53.2132C38.4946 53.6331 37.7432 54.5282 37.2017 54.7271C36.8039 54.2298 35.8978 53.4563 35.3784 52.948L33.5883 51.1247L31.7428 49.3456L29.9969 47.5775C28.7924 46.3619 27.5879 45.2569 26.3613 44.0635C25.1347 42.87 23.9855 41.6766 22.7699 40.5163L19.1343 36.9249C17.6094 35.4663 16.0513 34.0408 14.5926 32.5047C14.239 32.129 14.0512 31.9301 13.6975 31.5986C11.609 29.5985 10.1614 28.4713 9.05637 25.5761C5.82966 17.1447 13.9849 9.85142 22.2616 13.2328C23.3556 13.6749 23.8308 13.929 24.5048 14.6031C26.1071 16.2165 36.1188 26.3828 37.0249 27.1011C38.3399 26.2392 40.4064 24.1727 41.7656 23.123L52.2966 14.139C52.6944 13.7964 53.1143 13.4981 53.49 13.1444C53.8658 12.7908 54.3188 12.4593 54.6724 12.1389C55.026 11.8184 55.446 11.4648 55.7996 11.1775C56.4626 11.7521 56.9709 12.6472 57.5566 13.3544C57.7712 13.5852 57.967 13.8328 58.1423 14.0948H61.3358L61.3911 1.0332H48.5284L48.5726 4.27097Z" stroke="#D83F12" stroke-width="0.5" stroke-miterlimit="2.61313"/>
<path d="M168.702 35.7645V1.72933H190.018V6.31524H178.238V16.2164H189.388V20.8023H178.238V31.1786H190.637V35.7645H168.702ZM121.975 35.7645V1.72933H130.893L138.54 20.084L146.154 1.72933H155.48V35.7645H145.988V13.3875L136.816 35.7645H135.899L126.926 14.382V35.7645H121.975ZM111.594 27.4546C110.165 30.4235 108.131 32.6888 105.494 34.2506C102.857 35.8124 99.7441 36.5933 96.1564 36.5933C93.8285 36.5933 91.6736 36.2618 89.6919 35.5988C87.745 34.9633 85.9319 33.9743 84.3435 32.6815C82.2219 30.9723 80.6306 28.9722 79.5698 26.6811C78.5089 24.39 77.9785 21.8595 77.9785 19.0895C77.9785 13.7927 79.7061 9.45355 83.1611 6.07213C86.6199 2.69071 91.0511 1 96.4879 1C99.6042 1 102.323 1.62988 104.643 2.86752C106.964 4.10516 108.953 6.05003 110.655 8.65792L106.334 11.8404C105.295 9.63036 104.032 7.9728 102.544 6.86776C101.064 5.77476 99.2667 5.19644 97.4272 5.22125C94.5026 5.22125 92.2298 6.40733 90.6091 8.77948C89.0068 11.1332 88.2001 14.4815 88.2001 18.8022C88.2001 22.7877 89.121 26.0034 90.9627 28.4492C92.8192 30.8913 95.2392 32.1069 98.2449 32.1069C100.135 32.1069 101.869 31.4991 103.428 30.2725C104.986 29.0459 106.356 27.2226 107.516 24.8025L111.594 27.4546Z" fill="#566FAB"/>
<path d="M81.5089 44.328C80.9085 44.328 80.4436 44.5527 80.1142 45.0022C79.7849 45.4482 79.6202 46.0714 79.6202 46.8715C79.6202 48.5366 80.2497 49.3691 81.5089 49.3691C82.0372 49.3691 82.6771 49.238 83.4284 48.9759V50.3038C82.8109 50.5592 82.1213 50.6869 81.3596 50.6869C80.2652 50.6869 79.4281 50.3583 78.8482 49.7011C78.2684 49.0406 77.9785 48.0939 77.9785 46.8613C77.9785 46.085 78.1209 45.4057 78.4057 44.8234C78.6904 44.2377 79.0987 43.79 79.6305 43.4801C80.1657 43.1668 80.7918 43.0102 81.5089 43.0102C82.2397 43.0102 82.9739 43.1856 83.7115 43.5363L83.1969 44.8234C82.9155 44.6906 82.6325 44.5748 82.3477 44.4761C82.063 44.3773 81.7833 44.328 81.5089 44.328Z" fill="#D83F12"/>
<path d="M91.547 46.8409C91.547 48.0769 91.2383 49.0269 90.6207 49.6909C90.0032 50.3549 89.118 50.6869 87.9652 50.6869C86.8124 50.6869 85.9273 50.3549 85.3097 49.6909C84.6922 49.0269 84.3834 48.0735 84.3834 46.8307C84.3834 45.5878 84.6922 44.6395 85.3097 43.9858C85.9307 43.3286 86.8193 43 87.9755 43C89.1317 43 90.0152 43.3303 90.6259 43.9909C91.24 44.6514 91.547 45.6015 91.547 46.8409ZM86.0559 46.8409C86.0559 47.6751 86.2155 48.3034 86.5345 48.7256C86.8536 49.1478 87.3305 49.3589 87.9652 49.3589C89.2381 49.3589 89.8745 48.5196 89.8745 46.8409C89.8745 45.1588 89.2415 44.3178 87.9755 44.3178C87.3408 44.3178 86.8622 44.5306 86.5397 44.9562C86.2172 45.3784 86.0559 46.0067 86.0559 46.8409Z" fill="#D83F12"/>
<path d="M99.4649 50.5847H97.4373L94.1642 44.9358H94.1179C94.1831 45.9334 94.2157 46.6451 94.2157 47.0707V50.5847H92.7902V43.1175H94.8024L98.0703 48.7103H98.1063C98.0549 47.7398 98.0291 47.0537 98.0291 46.6519V43.1175H99.4649V50.5847Z" fill="#D83F12"/>
<path d="M103.95 50.5847H102.355V44.4352H100.312V43.1175H105.993V44.4352H103.95V50.5847Z" fill="#D83F12"/>
<path d="M106.835 50.5847V43.1175H108.43V50.5847H106.835Z" fill="#D83F12"/>
<path d="M116.683 50.5847H114.655L111.382 44.9358H111.336C111.401 45.9334 111.434 46.6451 111.434 47.0707V50.5847H110.008V43.1175H112.02L115.288 48.7103H115.324C115.273 47.7398 115.247 47.0537 115.247 46.6519V43.1175H116.683V50.5847Z" fill="#D83F12"/>
<path d="M124.39 43.1175V47.9492C124.39 48.5009 124.264 48.9844 124.014 49.3998C123.767 49.8152 123.408 50.1336 122.938 50.3549C122.468 50.5762 121.913 50.6869 121.271 50.6869C120.304 50.6869 119.552 50.4417 119.017 49.9514C118.482 49.4577 118.214 48.7835 118.214 47.9288V43.1175H119.804V47.6887C119.804 48.2642 119.921 48.6864 120.154 48.9554C120.388 49.2244 120.774 49.3589 121.312 49.3589C121.834 49.3589 122.211 49.2244 122.444 48.9554C122.681 48.683 122.8 48.2574 122.8 47.6785V43.1175H124.39Z" fill="#D83F12"/>
<path d="M125.916 50.5847V43.1175H127.511V50.5847H125.916Z" fill="#D83F12"/>
<path d="M135.764 50.5847H133.736L130.463 44.9358H130.417C130.482 45.9334 130.514 46.6451 130.514 47.0707V50.5847H129.089V43.1175H131.101L134.369 48.7103H134.405C134.354 47.7398 134.328 47.0537 134.328 46.6519V43.1175H135.764V50.5847Z" fill="#D83F12"/>
<path d="M140.203 46.3914H143.188V50.263C142.704 50.4196 142.247 50.5286 141.819 50.5898C141.393 50.6545 140.957 50.6869 140.511 50.6869C139.376 50.6869 138.508 50.3566 137.907 49.696C137.31 49.032 137.012 48.0803 137.012 46.8409C137.012 45.6355 137.358 44.6957 138.051 44.0215C138.748 43.3473 139.712 43.0102 140.944 43.0102C141.716 43.0102 142.46 43.1634 143.177 43.4699L142.647 44.7366C142.098 44.4642 141.527 44.328 140.933 44.328C140.244 44.328 139.691 44.5578 139.276 45.0175C138.861 45.4772 138.654 46.0952 138.654 46.8715C138.654 47.6819 138.82 48.3017 139.153 48.7307C139.489 49.1563 139.976 49.3691 140.614 49.3691C140.947 49.3691 141.285 49.3351 141.628 49.267V47.7092H140.203V46.3914Z" fill="#D83F12"/>
<path d="M150.275 50.5847L148.463 44.7264H148.417C148.482 45.9181 148.515 46.7132 148.515 47.1116V50.5847H147.089V43.1175H149.261L151.041 48.8277H151.072L152.961 43.1175H155.133V50.5847H153.645V47.0503C153.645 46.8835 153.647 46.6911 153.651 46.4731C153.657 46.2552 153.681 45.6764 153.723 44.7366H153.676L151.736 50.5847H150.275Z" fill="#D83F12"/>
<path d="M161.049 50.5847H156.715V43.1175H161.049V44.4148H158.311V46.0543H160.858V47.3516H158.311V49.2772H161.049V50.5847Z" fill="#D83F12"/>
<path d="M168.55 46.7796C168.55 48.0088 168.196 48.9503 167.49 49.6041C166.786 50.2579 165.769 50.5847 164.438 50.5847H162.307V43.1175H164.669C165.898 43.1175 166.851 43.4393 167.531 44.0828C168.21 44.7264 168.55 45.6253 168.55 46.7796ZM166.893 46.8205C166.893 45.2167 166.179 44.4148 164.752 44.4148H163.903V49.2772H164.587C166.124 49.2772 166.893 48.4583 166.893 46.8205Z" fill="#D83F12"/>
<path d="M169.793 50.5847V43.1175H171.388V50.5847H169.793Z" fill="#D83F12"/>
<path d="M176.162 44.328C175.561 44.328 175.096 44.5527 174.767 45.0022C174.438 45.4482 174.273 46.0714 174.273 46.8715C174.273 48.5366 174.903 49.3691 176.162 49.3691C176.69 49.3691 177.33 49.238 178.081 48.9759V50.3038C177.464 50.5592 176.774 50.6869 176.012 50.6869C174.918 50.6869 174.081 50.3583 173.501 49.7011C172.921 49.0406 172.631 48.0939 172.631 46.8613C172.631 46.085 172.774 45.4057 173.058 44.8234C173.343 44.2377 173.752 43.79 174.283 43.4801C174.819 43.1668 175.445 43.0102 176.162 43.0102C176.892 43.0102 177.627 43.1856 178.364 43.5363L177.85 44.8234C177.568 44.6906 177.285 44.5748 177.001 44.4761C176.716 44.3773 176.436 44.328 176.162 44.328Z" fill="#D83F12"/>
<path d="M183.977 50.5847L183.431 48.8073H180.688L180.143 50.5847H178.424L181.079 43.0868H183.03L185.696 50.5847H183.977ZM183.05 47.4793C182.546 45.8688 182.261 44.9579 182.196 44.7468C182.134 44.5357 182.09 44.3688 182.062 44.2462C181.949 44.6821 181.625 45.7598 181.09 47.4793H183.05Z" fill="#D83F12"/>
<path d="M186.331 50.5847V43.1175H187.927V49.2772H190.979V50.5847H186.331Z" fill="#D83F12"/>
<path d="M82.6462 63.8978H78.313V56.4306H82.6462V57.7279H79.9084V59.3674H82.4558V60.6648H79.9084V62.5903H82.6462V63.8978Z" fill="#D83F12"/>
<path d="M90.1473 60.0927C90.1473 61.3219 89.7939 62.2634 89.0871 62.9172C88.3838 63.571 87.3665 63.8978 86.0354 63.8978H83.9048V56.4306H86.2669C87.4952 56.4306 88.449 56.7524 89.1283 57.3959C89.8076 58.0395 90.1473 58.9384 90.1473 60.0927ZM88.4901 60.1336C88.4901 58.5298 87.7765 57.7279 86.3493 57.7279H85.5001V62.5903H86.1846C87.7216 62.5903 88.4901 61.7714 88.4901 60.1336Z" fill="#D83F12"/>
<path d="M97.5145 56.4306V61.2623C97.5145 61.814 97.3893 62.2975 97.1388 62.7129C96.8918 63.1283 96.5333 63.4467 96.0632 63.668C95.5932 63.8893 95.0374 64 94.3958 64C93.4283 64 92.677 63.7548 92.1418 63.2645C91.6065 62.7708 91.3389 62.0966 91.3389 61.2419V56.4306H92.9291V61.0019C92.9291 61.5773 93.0458 61.9995 93.2791 62.2685C93.5124 62.5375 93.8984 62.672 94.437 62.672C94.9585 62.672 95.3359 62.5375 95.5692 62.2685C95.8059 61.9961 95.9243 61.5705 95.9243 60.9916V56.4306H97.5145Z" fill="#D83F12"/>
<path d="M102.237 57.6411C101.636 57.6411 101.171 57.8658 100.842 58.3153C100.513 58.7613 100.348 59.3845 100.348 60.1846C100.348 61.8497 100.977 62.6822 102.237 62.6822C102.765 62.6822 103.405 62.5512 104.156 62.289V63.6169C103.539 63.8723 102.849 64 102.087 64C100.993 64 100.156 63.6714 99.5759 63.0142C98.9961 62.3537 98.7062 61.4071 98.7062 60.1744C98.7062 59.3981 98.8485 58.7188 99.1333 58.1365C99.4181 57.5508 99.8263 57.1031 100.358 56.7932C100.893 56.48 101.519 56.3233 102.237 56.3233C102.967 56.3233 103.702 56.4987 104.439 56.8494L103.925 58.1365C103.643 58.0037 103.36 57.8879 103.075 57.7892C102.791 57.6905 102.511 57.6411 102.237 57.6411Z" fill="#D83F12"/>
<path d="M110.051 63.8978L109.506 62.1204H106.763L106.218 63.8978H104.499L107.154 56.3999H109.105L111.77 63.8978H110.051ZM109.125 60.7924C108.621 59.1819 108.336 58.271 108.271 58.0599C108.209 57.8488 108.165 57.6819 108.137 57.5594C108.024 57.9952 107.7 59.0729 107.164 60.7924H109.125Z" fill="#D83F12"/>
<path d="M115.309 63.8978H113.713V57.7483H111.67V56.4306H117.352V57.7483H115.309V63.8978Z" fill="#D83F12"/>
<path d="M118.194 63.8978V56.4306H119.789V63.8978H118.194Z" fill="#D83F12"/>
<path d="M128.196 60.154C128.196 61.39 127.887 62.34 127.269 63.004C126.652 63.668 125.767 64 124.614 64C123.461 64 122.576 63.668 121.958 63.004C121.341 62.34 121.032 61.3866 121.032 60.1438C121.032 58.9009 121.341 57.9526 121.958 57.2989C122.579 56.6417 123.468 56.3131 124.624 56.3131C125.78 56.3131 126.664 56.6434 127.275 57.304C127.889 57.9646 128.196 58.9146 128.196 60.154ZM122.705 60.154C122.705 60.9882 122.864 61.6165 123.183 62.0387C123.502 62.4609 123.979 62.672 124.614 62.672C125.887 62.672 126.523 61.8327 126.523 60.154C126.523 58.4719 125.89 57.6309 124.624 57.6309C123.989 57.6309 123.511 57.8437 123.188 58.2693C122.866 58.6915 122.705 59.3198 122.705 60.154Z" fill="#D83F12"/>
<path d="M136.114 63.8978H134.086L130.813 58.2489H130.767C130.832 59.2466 130.864 59.9582 130.864 60.3838V63.8978H129.439V56.4306H131.451L134.719 62.0234H134.755C134.704 61.0529 134.678 60.3668 134.678 59.965V56.4306H136.114V63.8978Z" fill="#D83F12"/>
</svg>
